<?xml version="1.0" encoding="utf-8"?>
<!-- Generator: Adobe Illustrator 24.1.1, SVG Export Plug-In . SVG Version: 6.00 Build 0)  -->
<svg version="1.1" id="Calque_1" xmlns="http://www.w3.org/2000/svg" xmlns:xlink="http://www.w3.org/1999/xlink" x="0px" y="0px"
	 viewBox="0 0 115 27" style="enable-background:new 0 0 115 27;" xml:space="preserve">
<style type="text/css">
	.st0{fill:#FFFFFF;}
</style>
<desc>Created with Sketch.</desc>
<g id="logo_1_">
	<g id="Artboard" transform="translate(-134.000000, -280.000000)">
		<g id="logo-line-color" transform="translate(134.000000, 280.000000)">
			<g id="Group-13" transform="translate(0.000000, 0.000000)">
				<g id="Group" transform="translate(32.000000, 3.000000)">
					<path id="ringover" class="st0" d="M2.8,17.6V12c0-2.2,1-3.4,3.1-3.4c0.3,0,0.6,0,0.9,0.1V5.9c-0.1,0-0.4-0.1-0.7-0.1
						c-1.5,0-2.8,0.7-3.4,2V5.9H0v11.7H2.8z M9.5,3.6c1,0,1.8-0.8,1.8-1.8S10.5,0,9.5,0c-1,0-1.8,0.8-1.8,1.8S8.6,3.6,9.5,3.6z
						 M10.9,17.6V5.9H8.2v11.7H10.9z M16.3,17.6v-6.7c0-1.5,0.8-2.8,2.4-2.8c1.8,0,2.4,1.2,2.4,2.6v6.9h2.8v-7.4
						c0-2.6-1.4-4.6-4.2-4.6c-1.3,0-2.7,0.6-3.5,1.9V5.9h-2.7v11.7H16.3z M31,22.5c4.4,0,6-2.9,6-6V5.9h-2.7v1.5
						c-0.5-1-1.6-1.7-3.5-1.7c-3.2,0-5.4,2.6-5.4,5.7c0,3.3,2.3,5.7,5.4,5.7c1.7,0,2.9-0.8,3.4-1.7v1.2c0,2.4-1.1,3.5-3.3,3.5
						c-1.6,0-2.7-1.1-2.9-2.5l-2.6,0.7C25.8,20.6,27.9,22.5,31,22.5z M31.3,14.7c-1.8,0-3-1.3-3-3.3c0-2,1.3-3.3,3-3.3
						c1.7,0,3,1.3,3,3.3C34.3,13.4,33.1,14.7,31.3,14.7z M44.6,18c3.5,0,6.1-2.6,6.1-6.2c0-3.6-2.6-6.2-6.1-6.2c-3.5,0-6,2.6-6,6.2
						C38.5,15.4,41.1,18,44.6,18z M44.6,15.5c-1.7,0-3.3-1.3-3.3-3.7s1.6-3.7,3.3-3.7c1.7,0,3.3,1.2,3.3,3.7
						C47.8,14.2,46.3,15.5,44.6,15.5z M58,17.6l4.6-11.7h-2.9l-3,8.4l-3.1-8.4h-3.1l4.8,11.7H58z M68.3,18c2.8,0,4.7-1.7,5.3-3.7
						l-2.4-0.7c-0.4,1.2-1.2,2-2.9,2c-1.7,0-3.1-1.3-3.2-3h8.5c0,0,0.1-0.4,0.1-0.9c0-3.7-2.1-6.1-5.7-6.1c-3,0-5.7,2.4-5.7,6.1
						C62.3,15.7,65.1,18,68.3,18z M70.9,10.5h-5.7c0.1-1.2,1.1-2.6,2.9-2.6C69.9,7.9,70.8,9.1,70.9,10.5z M78.2,17.6V12
						c0-2.2,1-3.4,3.1-3.4c0.3,0,0.6,0,0.9,0.1V5.9c-0.1,0-0.4-0.1-0.7-0.1c-1.5,0-2.8,0.7-3.4,2V5.9h-2.7v11.7H78.2z"/>
				</g>
				<g id="logo" transform="translate(0.000000, 0.000000)">
					<g id="Group-Copy-3">
						<g id="Group-2" transform="translate(0.245620, 0.000000)">
							<path id="Shape" class="st0" d="M12.7,26C6.4,26,1.5,21.8,0.4,15.7c0-0.1,0-0.2-0.1-0.3l6.2,0c0,0.1,0,0.2,0.1,0.2
								c0.9,2.9,3.4,4.4,6.1,4.4c2.7,0,5.2-1.5,6.1-4.4c0,0,0-0.1,0.1-0.2h6.2c0,0.1,0,0.2,0,0.3C24,21.8,19.1,26,12.7,26z M12.7,0
								c6.6,0,11.7,4.6,12.5,11.2c0,0.1,0,0.2,0,0.4h-6.2c0-0.1,0-0.2,0-0.2c-0.7-3.5-3.4-5.3-6.4-5.3c-2.9,0-5.6,1.7-6.3,5.1
								c0,0.1,0,0.2-0.1,0.4H0.2c0-0.3,0-0.5,0.1-0.6C1.1,4.5,6.2,0,12.7,0z"/>
						</g>
					</g>
				</g>
			</g>
		</g>
	</g>
</g>
</svg>
